<svg width="25" height="24" viewBox="0 0 25 24" fill="none" xmlns="http://www.w3.org/2000/svg">
<path fill-rule="evenodd" clip-rule="evenodd" d="M17.9957 6.50289C13.4266 11.0711 6.30321 11.5277 1.22345 7.87273C2.90619 3.27856 7.31763 0 12.4948 0H24.5L21.6928 2.80662C21.3778 3.12151 21.0824 3.44854 20.8065 3.7862C20.8068 3.75494 20.8069 3.72364 20.8069 3.69232L17.9957 6.50289ZM8.25106 15.6798C5.24773 15.5435 2.53202 14.3035 0.5 12.3558C0.63596 17.0249 3.439 21.0251 7.43861 22.8859C6.97293 20.536 7.20461 18.0264 8.25106 15.6798ZM12.0175 23.9907C12.1758 23.9969 12.335 24 12.4948 24H24.5L21.6928 21.1934C19.2492 18.7503 17.9815 15.5766 17.8896 12.3754C13.9891 14.9186 11.7566 19.3801 12.0175 23.9907Z" fill="#E09370"/>
</svg>
